<?xml version="1.0" standalone="no"?>
<!DOCTYPE svg PUBLIC "-//W3C//DTD SVG 20010904//EN"
 "http://www.w3.org/TR/2001/REC-SVG-20010904/DTD/svg10.dtd">
<svg version="1.0" xmlns="http://www.w3.org/2000/svg"
 width="1280.000000pt" height="1280.000000pt" viewBox="0 0 1280.000000 1280.000000"
 preserveAspectRatio="xMidYMid meet">
<metadata>
Created by potrace 1.15, written by Peter Selinger 2001-2017
</metadata>
<g transform="translate(0.000000,1280.000000) scale(0.100000,-0.100000)"
fill="#000000" stroke="none">
<path d="M6110 12783 c-107 -5 -405 -33 -565 -54 -380 -48 -855 -160 -1205
-284 -41 -14 -109 -38 -150 -52 -41 -14 -79 -29 -85 -32 -5 -4 -32 -16 -60
-26 -254 -91 -702 -318 -1014 -512 -102 -64 -427 -287 -449 -309 -7 -8 -17
-14 -20 -14 -4 0 -18 -10 -32 -22 -14 -13 -59 -50 -100 -82 -41 -33 -135 -112
-208 -175 -74 -64 -144 -123 -158 -131 -31 -19 -354 -345 -354 -357 0 -5 -17
-27 -37 -49 -88 -92 -373 -438 -373 -452 0 -4 -10 -18 -23 -32 -13 -14 -38
-47 -57 -75 -18 -27 -36 -52 -40 -55 -11 -9 -196 -294 -257 -395 -111 -186
-220 -391 -313 -589 -45 -98 -140 -320 -140 -330 0 -3 -9 -25 -20 -49 -10 -23
-33 -82 -50 -132 -17 -49 -35 -99 -40 -110 -11 -25 -72 -224 -111 -365 -80
-284 -150 -643 -183 -940 -91 -806 -45 -1552 145 -2319 99 -398 220 -743 401
-1136 40 -89 193 -388 234 -458 117 -202 315 -502 441 -669 40 -53 73 -100 73
-104 0 -6 29 -43 135 -173 141 -173 553 -601 578 -601 5 0 15 -6 21 -14 14
-17 177 -160 277 -242 186 -152 483 -364 694 -496 232 -144 639 -354 855 -440
41 -16 89 -36 105 -44 47 -22 272 -103 360 -130 44 -14 89 -29 100 -34 22 -9
86 -29 185 -55 36 -9 76 -21 90 -25 23 -8 198 -49 355 -84 142 -32 476 -81
730 -108 160 -17 976 -17 1135 0 252 27 578 75 720 107 398 88 612 149 915
260 55 20 114 42 130 47 17 6 35 14 40 18 6 4 21 11 35 15 111 33 574 261 795
390 203 119 591 377 625 414 10 11 69 51 76 51 6 0 92 67 174 136 290 243 571
522 801 794 35 41 66 77 69 80 17 16 110 141 110 148 0 4 8 17 18 28 31 34
197 266 257 359 32 50 72 113 90 140 146 227 385 687 467 900 11 28 26 64 33
80 86 185 232 648 301 952 56 244 63 281 89 463 8 58 20 132 25 165 24 140 42
421 47 720 11 658 -61 1219 -235 1845 -141 506 -392 1090 -655 1523 -90 147
-235 368 -314 477 -41 56 -147 195 -153 200 -3 3 -21 25 -40 50 -19 25 -37 47
-40 50 -3 3 -27 32 -55 65 -27 33 -81 96 -120 141 -38 44 -79 92 -91 107 -100
131 -627 611 -770 703 -16 10 -69 48 -119 85 -153 112 -394 273 -525 349 -69
39 -129 75 -135 80 -38 28 -521 270 -540 270 -2 0 -32 13 -67 29 -35 16 -94
41 -133 56 -38 15 -85 33 -103 42 -30 13 -111 42 -262 93 -279 94 -561 165
-930 235 -96 18 -411 57 -605 75 -120 11 -644 19 -795 13z m-1260 -4029 c624
-624 1232 -1229 1351 -1344 l216 -210 1344 1345 c739 740 1348 1345 1354 1345
5 0 187 -177 402 -392 l393 -393 -1257 -1260 c-692 -693 -1299 -1303 -1350
-1355 l-93 -95 1350 -1350 1350 -1350 -397 -397 -398 -398 -1345 1345 c-740
740 -1350 1345 -1355 1345 -14 0 -45 -31 -1460 -1443 l-1250 -1247 -393 393
c-215 215 -392 396 -392 401 0 4 605 614 1345 1354 l1345 1345 -200 206 c-109
113 -714 721 -1344 1351 -630 630 -1146 1149 -1146 1153 0 12 773 786 785 786
6 1 521 -510 1145 -1135z"/>
</g>
</svg>
